<svg width="29" height="29" viewBox="0 0 29 29" fill="none" xmlns="http://www.w3.org/2000/svg">
<path d="M13.5938 9.36459H4.53125" stroke="white" stroke-width="1.8125" stroke-linecap="round"/>
<path d="M21.1458 12.0833C22.8142 12.0833 24.1667 10.7308 24.1667 9.06249C24.1667 7.39413 22.8142 6.04166 21.1458 6.04166C19.4775 6.04166 18.125 7.39413 18.125 9.06249C18.125 10.7308 19.4775 12.0833 21.1458 12.0833Z" fill="white" stroke="white"/>
<path d="M24.4687 20.2396H14.1979" stroke="white" stroke-width="1.8125" stroke-linecap="round"/>
<path d="M6.64583 22.9583C8.31419 22.9583 9.66666 21.6059 9.66666 19.9375C9.66666 18.2691 8.31419 16.9167 6.64583 16.9167C4.97747 16.9167 3.625 18.2691 3.625 19.9375C3.625 21.6059 4.97747 22.9583 6.64583 22.9583Z" fill="white" stroke="white"/>
</svg>
