<svg width="29" height="29" viewBox="0 0 29 29" fill="none" xmlns="http://www.w3.org/2000/svg">
<path d="M10.875 21.75C11.876 21.75 12.6875 22.5615 12.6875 23.5625C12.6875 24.5635 11.876 25.375 10.875 25.375C9.87398 25.375 9.0625 24.5635 9.0625 23.5625C9.0625 22.5615 9.87398 21.75 10.875 21.75Z" stroke="#1B1B1B" stroke-width="1.8125"/>
<path d="M19.3333 21.75C20.3344 21.75 21.1458 22.5615 21.1458 23.5625C21.1458 24.5635 20.3344 25.375 19.3333 25.375C18.3323 25.375 17.5208 24.5635 17.5208 23.5625C17.5208 22.5615 18.3323 21.75 19.3333 21.75Z" stroke="#1B1B1B" stroke-width="1.8125"/>
<path d="M6.94792 14.5C6.94792 12.7656 6.94984 11.5559 7.07256 10.6431C7.19176 9.75649 7.4098 9.28697 7.74422 8.95255C8.07864 8.61814 8.54816 8.40009 9.43481 8.28089C10.3475 8.15817 11.5572 8.15625 13.2917 8.15625H16.8166C18.8308 8.15625 20.2441 8.15841 21.2945 8.3075C22.3197 8.45302 22.8319 8.71826 23.1703 9.11767C23.5086 9.51708 23.6861 10.0659 23.6611 11.1012C23.6355 12.1618 23.4052 13.5562 23.0741 15.5429C22.8292 17.0125 22.6576 18.0317 22.4302 18.7957C22.21 19.5354 21.9668 19.9267 21.6449 20.1995C21.3229 20.4722 20.8969 20.6478 20.1311 20.7433C19.3401 20.8421 18.3066 20.8438 16.8166 20.8438H13.2917C11.5572 20.8438 10.3475 20.8418 9.43481 20.7192C8.54816 20.5999 8.07864 20.3819 7.74422 20.0475C7.4098 19.713 7.19176 19.2436 7.07256 18.3569C6.94984 17.4441 6.94792 16.2344 6.94792 14.5Z" stroke="#1B1B1B" stroke-width="1.8125"/>
<path d="M6.94792 13.8958V6.04167C6.94792 4.70698 5.86594 3.625 4.53125 3.625H3.02084" stroke="#1B1B1B" stroke-width="1.8125" stroke-linecap="round"/>
</svg>
