<svg width="28" height="28" viewBox="0 0 28 28" fill="none" xmlns="http://www.w3.org/2000/svg">
<g clip-path="url(#clip0_2_76)">
<path d="M19.8313 14.0549H19.7875L20.2507 4.1568C20.2613 3.9305 20.0865 3.73849 19.8602 3.72794C19.634 3.71705 19.4419 3.89222 19.4314 4.11846L18.9663 14.0549H9.03373L8.64539 5.76007C8.50425 2.74455 8.51234 2.93973 8.51234 2.86891C8.51234 1.73934 9.43235 0.820312 10.5632 0.820312H17.4367C18.5676 0.820312 19.4876 1.73934 19.4876 2.86891C19.4876 2.93601 19.4901 2.86355 19.4314 4.11846C19.4207 4.3447 19.5956 4.53671 19.8219 4.54732C20.0481 4.55831 20.2401 4.38309 20.2507 4.1568C20.3093 2.90544 20.3079 2.96144 20.3079 2.86891C20.3079 1.28696 19.0199 0 17.4367 0H10.5632C8.98008 0 7.69208 1.28696 7.69208 2.86891C7.69208 2.96603 7.68355 2.75466 7.82607 5.79841L8.2126 14.0549H8.16879C7.39983 14.0549 6.77426 14.6805 6.77426 15.4494V17.4832C6.77426 18.2521 7.39983 18.8777 8.16879 18.8777H8.45103V23.3894C8.45103 23.6159 8.63468 23.7996 8.86119 23.7996C9.08771 23.7996 9.27135 23.6159 9.27135 23.3894V18.8777H10.5026L9.93438 26.8713C9.92207 27.0442 9.77666 27.1797 9.60325 27.1797C9.42021 27.1797 9.27135 27.0308 9.27135 26.8478V23.3894C9.27135 23.1629 9.08771 22.9792 8.86119 22.9792C8.63468 22.9792 8.45103 23.1629 8.45103 23.3894V26.8478C8.45103 27.4831 8.96794 28 9.60325 28C10.2051 28 10.7099 27.5297 10.7526 26.9294L11.325 18.8777H16.6752L17.2476 26.9295C17.2902 27.5297 17.795 28 18.3968 28C19.0322 28 19.549 27.4831 19.549 26.8478V18.8777H19.8313C20.6002 18.8777 21.2258 18.2521 21.2258 17.4832V15.4494C21.2258 14.6805 20.6002 14.0549 19.8313 14.0549ZM18.7287 26.8478C18.7287 27.0308 18.5798 27.1797 18.3968 27.1797C18.2235 27.1797 18.078 27.0442 18.0657 26.8713L17.4974 18.8777H18.7287V26.8478ZM20.4055 17.4832C20.4055 17.7998 20.1479 18.0574 19.8313 18.0574C18.5627 18.0574 9.42595 18.0574 8.16868 18.0574C7.85204 18.0574 7.59446 17.7998 7.59446 17.4832V15.4494C7.59446 15.1328 7.85204 14.8752 8.16868 14.8752H19.8313C20.1479 14.8752 20.4055 15.1328 20.4055 15.4494V17.4832Z" fill="#909090"/>
</g>
<defs>
<clipPath id="clip0_2_76">
<rect width="28" height="28" fill="white"/>
</clipPath>
</defs>
</svg>
