<svg width="24" height="24" viewBox="0 0 24 24" fill="none" xmlns="http://www.w3.org/2000/svg">
<mask id="mask0_2_197" style="mask-type:alpha" maskUnits="userSpaceOnUse" x="3" y="2" width="18" height="21">
<path fill-rule="evenodd" clip-rule="evenodd" d="M4.17157 3.17157C3 4.34315 3 6.22876 3 10V20.601C3 22.1259 4.63822 23.0899 5.97129 22.3493L11.0287 19.5396C11.6328 19.204 12.3672 19.204 12.9713 19.5396L18.0287 22.3493C19.3618 23.0899 21 22.1259 21 20.601V10C21 6.22876 21 4.34315 19.8284 3.17157C18.6569 2 16.7712 2 13 2H11C7.22876 2 5.34315 2 4.17157 3.17157Z" fill="white"/>
</mask>
<g mask="url(#mask0_2_197)">
<path d="M19.8284 3.17157L20.8891 2.11091L19.8284 3.17157ZM11.0287 19.5396L11.7572 20.8508L11.0287 19.5396ZM12.9713 19.5396L12.2428 20.8508L12.9713 19.5396ZM5.97129 22.3493L6.69975 23.6605L5.97129 22.3493ZM4.5 10C4.5 8.07198 4.50319 6.77686 4.63307 5.81078C4.75715 4.88786 4.9716 4.49287 5.23223 4.23223L3.11091 2.11091C2.19997 3.02185 1.82863 4.15545 1.65982 5.41104C1.49681 6.62348 1.5 8.15679 1.5 10H4.5ZM4.5 20.601V10H1.5V20.601H4.5ZM6.69975 23.6605L11.7572 20.8508L10.3003 18.2284L5.24282 21.038L6.69975 23.6605ZM12.2428 20.8508L17.3003 23.6605L18.7572 21.038L13.6998 18.2284L12.2428 20.8508ZM19.5 10V20.601H22.5V10H19.5ZM18.7678 4.23223C19.0284 4.49287 19.2428 4.88786 19.3669 5.81078C19.4968 6.77686 19.5 8.07198 19.5 10H22.5C22.5 8.15679 22.5032 6.62348 22.3402 5.41104C22.1714 4.15545 21.8 3.02185 20.8891 2.11091L18.7678 4.23223ZM13 3.5C14.928 3.5 16.2231 3.50319 17.1892 3.63307C18.1121 3.75715 18.5071 3.9716 18.7678 4.23223L20.8891 2.11091C19.9781 1.19997 18.8445 0.828636 17.589 0.659827C16.3765 0.496818 14.8432 0.500005 13 0.500005V3.5ZM11 3.5H13V0.500005H11V3.5ZM5.23223 4.23223C5.49287 3.9716 5.88786 3.75715 6.81078 3.63307C7.77686 3.50319 9.07198 3.5 11 3.5V0.500005C9.15679 0.500005 7.62348 0.496818 6.41104 0.659827C5.15545 0.828636 4.02185 1.19997 3.11091 2.11091L5.23223 4.23223ZM17.3003 23.6605C19.6331 24.9566 22.5 23.2697 22.5 20.601H19.5C19.5 20.9822 19.0904 21.2232 18.7572 21.038L17.3003 23.6605ZM11.7572 20.8508C11.9082 20.7669 12.0918 20.7669 12.2428 20.8508L13.6998 18.2284C12.6427 17.6411 11.3573 17.6411 10.3003 18.2284L11.7572 20.8508ZM1.5 20.601C1.5 23.2697 4.36689 24.9566 6.69975 23.6605L5.24282 21.038C4.90956 21.2232 4.5 20.9822 4.5 20.601H1.5Z" fill="#242424"/>
<path d="M9.75 10.25H14.25" stroke="#242424" stroke-width="1.5" stroke-linecap="round"/>
</g>
</svg>
